<svg version="1.0" xmlns="http://www.w3.org/2000/svg"
 width="128.000000pt" height="128.000000pt" viewBox="0 0 128.000000 128.000000"
 preserveAspectRatio="xMidYMid meet">

<g transform="translate(0.000000,128.000000) scale(0.100000,-0.100000)"
fill="#13111c" stroke="none">
<path d="M431 1059 c-53 -17 -76 -32 -127 -83 -54 -54 -65 -72 -84 -135 -41
-134 -7 -256 96 -350 59 -54 150 -91 224 -91 53 0 154 33 194 64 l33 25 24
-25 c20 -21 23 -34 21 -75 l-4 -50 85 -84 c79 -80 87 -85 126 -85 58 0 91 33
91 91 0 39 -5 47 -85 126 l-84 85 -50 -4 c-41 -2 -54 1 -75 21 l-25 24 25 33
c31 40 64 141 64 194 0 21 -9 68 -21 106 -30 98 -115 183 -213 213 -84 26
-132 26 -215 0z m209 -80 c210 -95 212 -377 5 -475 -166 -79 -364 50 -365 236
0 182 197 313 360 239z m343 -658 c54 -57 69 -94 29 -72 -30 17 -133 131 -127
141 10 15 35 -2 98 -69z"/>
<path d="M465 945 c-76 -27 -155 -140 -143 -203 6 -31 32 -19 39 18 14 87 72
145 159 160 22 3 35 11 35 20 0 20 -41 23 -90 5z"/>
</g>
</svg>
